<?xml version="1.0" standalone="no"?>
<!DOCTYPE svg PUBLIC "-//W3C//DTD SVG 20010904//EN"
 "http://www.w3.org/TR/2001/REC-SVG-20010904/DTD/svg10.dtd">
<svg version="1.0" xmlns="http://www.w3.org/2000/svg"
 width="800.000000pt" height="800.000000pt" viewBox="0 0 800.000000 800.000000"
 preserveAspectRatio="xMidYMid meet">

<g transform="translate(0.000000,800.000000) scale(0.100000,-0.100000)"
fill="#000000" stroke="none">
<path d="M1670 7248 c-37 -19 -50 -35 -77 -88 -59 -116 -77 -190 -70 -294 3
-51 15 -125 27 -165 18 -57 21 -89 18 -147 -3 -40 -1 -95 4 -121 5 -26 13
-129 18 -228 10 -187 21 -301 39 -395 6 -30 15 -82 20 -115 6 -33 22 -114 37
-180 14 -66 31 -156 39 -200 7 -44 18 -98 24 -120 6 -22 11 -52 11 -66 0 -15
7 -32 15 -39 9 -8 13 -21 9 -36 -6 -21 0 -27 50 -50 31 -14 56 -32 56 -40 0
-12 4 -12 30 1 34 18 39 35 10 35 -11 0 -20 4 -20 9 0 18 18 21 46 9 23 -11
28 -10 32 2 3 7 16 24 28 37 13 13 24 29 24 36 0 7 10 17 23 22 22 10 24 24
12 77 -6 21 -3 27 14 33 32 10 25 32 -14 46 -19 7 -35 18 -35 24 0 5 -9 16
-20 23 -25 15 -26 32 -2 32 27 0 32 9 22 36 -6 16 -6 24 1 24 6 0 13 -9 16
-21 4 -12 11 -18 20 -15 8 3 17 6 19 6 2 0 4 11 4 25 0 28 -21 41 -47 29 -17
-7 -30 -8 -53 -5 -5 0 -10 8 -10 17 0 32 -33 12 -57 -34 -1 -2 -9 0 -18 5 -15
9 -15 11 -1 25 14 14 13 17 -4 33 -26 23 -27 60 -2 49 9 -4 28 -7 42 -6 14 1
42 1 62 2 20 0 40 5 43 10 3 6 24 10 46 10 28 0 39 4 39 15 0 20 28 48 63 63
34 14 35 37 2 58 -14 9 -25 20 -25 24 0 14 29 20 53 11 12 -5 31 -5 43 -1 15
6 26 3 37 -11 24 -27 62 -24 84 6 11 16 32 28 56 32 33 5 37 3 37 -16 0 -12 6
-21 15 -21 19 0 19 9 -2 32 -15 17 -15 19 2 38 14 16 26 19 56 14 22 -4 39 -3
39 2 0 19 -16 31 -40 30 -23 -1 -25 2 -22 34 2 19 6 37 8 39 10 10 55 -21 64
-45 8 -21 15 -25 36 -21 17 3 31 -2 43 -14 9 -10 31 -21 48 -25 26 -5 33 -1
53 25 17 25 25 29 36 20 12 -10 13 -2 7 51 -4 47 -3 61 5 56 7 -4 12 -16 12
-27 0 -31 30 -36 52 -9 16 20 21 21 29 9 5 -7 9 -17 9 -21 0 -3 18 -9 40 -13
22 -4 44 -14 50 -23 8 -14 11 -15 19 -3 6 10 13 10 28 3 14 -8 23 -8 31 0 22
22 12 33 -61 62 -144 58 -341 281 -516 584 -23 39 -44 72 -46 72 -7 0 7 -64
16 -74 12 -13 11 -26 0 -26 -5 0 -14 15 -22 33 -7 17 -21 43 -31 57 -12 15
-17 33 -14 46 12 46 -21 73 -44 37 -8 -15 -10 -12 -6 15 4 28 0 35 -20 44 -13
6 -26 19 -29 30 -4 10 -10 18 -15 18 -5 0 -10 10 -12 23 -2 12 -8 22 -15 22
-6 0 -15 3 -19 8 -4 4 -2 7 5 7 6 0 -1 16 -16 35 -25 31 -54 50 -38 25 3 -5 1
-10 -4 -10 -6 0 -11 8 -11 19 0 10 -7 24 -15 31 -8 7 -15 19 -15 26 0 8 -7 14
-16 14 -22 0 -51 34 -74 87 -17 40 -173 185 -225 209 -66 31 -136 31 -195 2z
m895 -841 c23 -39 36 -67 30 -67 -7 0 -65 82 -65 92 0 17 16 7 35 -25z m-78
-59 c-3 -8 -6 -5 -6 6 -1 11 2 17 5 13 3 -3 4 -12 1 -19z m-338 -75 c6 -11 30
-22 62 -28 45 -9 53 -14 54 -34 1 -13 9 -28 18 -33 20 -11 22 -38 3 -38 -7 0
-19 7 -26 15 -7 8 -19 15 -27 15 -7 0 -16 7 -19 15 -4 8 -10 15 -15 15 -13 0
-99 60 -99 70 0 8 16 17 32 19 4 1 11 -7 17 -16z m67 -269 c6 -7 20 -14 31
-14 11 0 26 -6 32 -14 7 -8 31 -18 53 -21 32 -6 43 -4 50 9 5 9 20 16 33 16
27 0 100 -64 90 -80 -9 -14 -42 5 -50 30 -4 13 -15 20 -31 20 -21 0 -24 -4
-22 -32 3 -30 0 -33 -29 -36 -18 -2 -33 1 -33 7 0 6 -9 15 -20 21 -24 13 -27
-2 -5 -23 13 -13 13 -16 -1 -21 -8 -3 -22 -1 -32 4 -9 6 -37 17 -62 24 -25 7
-44 18 -43 24 1 6 -12 14 -30 18 -58 12 -64 50 -9 60 20 4 31 9 25 11 -7 3
-13 9 -13 15 0 14 52 0 66 -18z m-153 -49 c1 -6 -13 -11 -30 -13 -37 -4 -45
14 -10 21 29 5 38 4 40 -8z m147 -135 c0 -5 -7 -10 -15 -10 -8 0 -15 5 -15 10
0 6 7 10 15 10 8 0 15 -4 15 -10z m174 -26 c24 -9 9 -24 -25 -24 -29 0 -40 14
-16 23 18 8 23 8 41 1z m-573 -501 c-9 -16 -10 -14 -11 12 0 21 3 26 11 18 8
-8 8 -16 0 -30z m59 -3 c14 -11 36 -20 50 -20 29 -1 70 -34 90 -72 9 -19 21
-28 37 -28 13 0 23 -2 23 -5 0 -7 -64 -99 -75 -107 -13 -10 -26 1 -24 20 4 42
-2 64 -19 69 -10 2 -22 14 -27 26 -6 12 -25 30 -44 39 -41 20 -51 34 -51 71 0
32 6 33 40 7z m15 -250 c3 -5 -3 -10 -15 -10 -12 0 -18 5 -15 10 3 6 10 10 15
10 5 0 12 -4 15 -10z"/>
<path d="M2225 5950 c-18 -7 -18 -8 7 -15 28 -7 48 -1 48 16 0 11 -27 11 -55
-1z"/>
<path d="M6385 6710 c-3 -5 -2 -10 4 -10 5 0 13 5 16 10 3 6 2 10 -4 10 -5 0
-13 -4 -16 -10z"/>
<path d="M6453 6713 c15 -2 37 -2 50 0 12 2 0 4 -28 4 -27 0 -38 -2 -22 -4z"/>
<path d="M6564 6705 c-5 -12 -27 -15 -109 -15 -57 0 -106 -4 -109 -9 -4 -5
-25 -9 -49 -9 -23 1 -56 -6 -74 -15 -18 -10 -39 -17 -48 -17 -8 0 -15 -4 -15
-10 0 -5 5 -10 10 -10 23 0 7 -19 -47 -56 -32 -21 -75 -55 -95 -74 -21 -19
-56 -51 -78 -70 -22 -19 -47 -40 -54 -47 -8 -7 -36 -24 -62 -39 -27 -15 -65
-39 -84 -53 -19 -15 -48 -35 -65 -46 -71 -44 -336 -287 -390 -356 -16 -22 -69
-66 -117 -98 -100 -68 -174 -90 -237 -73 -20 6 -70 21 -111 33 -135 39 -197
47 -317 43 -63 -2 -119 -6 -123 -9 -5 -3 -6 -21 -3 -40 4 -26 2 -36 -11 -41
-10 -4 -16 -18 -16 -39 0 -18 -4 -35 -10 -37 -13 -4 24 -82 60 -126 16 -20 30
-45 30 -55 0 -10 8 -21 18 -24 9 -2 24 -19 33 -36 11 -23 23 -32 40 -32 20 0
24 4 21 28 -4 29 15 38 25 11 3 -8 12 -13 20 -10 12 5 14 -3 11 -41 -2 -39 0
-48 15 -51 12 -2 22 7 32 30 13 31 14 32 16 8 4 -47 -1 -65 -24 -82 -18 -14
-19 -19 -10 -29 10 -10 20 -6 46 20 31 29 36 31 60 20 20 -9 27 -20 27 -41 0
-17 5 -28 14 -28 7 0 19 -7 26 -15 7 -8 20 -15 30 -15 11 0 20 -10 24 -26 6
-22 10 -25 37 -19 28 6 30 5 24 -14 -5 -18 -2 -21 19 -21 14 0 26 5 26 10 0 6
10 10 23 9 l22 0 -24 -10 c-20 -8 -22 -13 -16 -46 6 -31 4 -35 -7 -25 -11 9
-17 9 -26 0 -17 -17 -15 -34 10 -72 18 -27 31 -35 62 -39 46 -6 66 -27 62 -65
-3 -25 -8 -28 -72 -38 -38 -6 -100 -20 -139 -31 -38 -12 -91 -24 -117 -28 -27
-3 -48 -10 -48 -14 0 -4 -18 -15 -41 -25 -39 -17 -41 -17 -55 0 -14 17 -15 16
-9 -20 6 -37 6 -38 -19 -32 -22 5 -30 -2 -70 -63 -25 -38 -46 -72 -46 -76 0
-5 -11 -22 -23 -39 -28 -37 -47 -88 -47 -128 0 -21 -6 -31 -20 -35 -21 -6 -21
-9 -22 -108 -1 -33 -6 -54 -16 -61 -14 -10 -10 -17 26 -53 23 -22 46 -41 51
-41 6 0 14 -12 17 -26 8 -31 45 -47 91 -38 23 4 33 11 29 20 -3 8 1 14 10 14
8 0 12 -4 9 -10 -4 -6 16 -10 52 -10 33 0 63 -4 69 -9 12 -13 193 -31 305 -31
86 0 193 20 213 40 5 5 16 10 23 10 7 0 39 18 70 40 76 52 93 53 87 1 -2 -22
0 -42 6 -46 7 -4 5 -16 -6 -34 -11 -18 -14 -38 -10 -55 5 -21 12 -26 37 -26
17 0 44 -9 61 -21 24 -17 28 -26 23 -49 -5 -23 -2 -29 24 -40 17 -7 36 -18 42
-26 7 -9 32 -14 70 -14 57 0 58 -1 56 -27 -3 -41 25 -40 72 2 32 29 47 36 73
33 28 -3 34 -8 44 -44 6 -22 19 -55 28 -72 9 -17 16 -38 16 -48 0 -9 11 -25
25 -36 14 -11 25 -29 25 -41 1 -24 46 -80 74 -90 9 -4 24 -23 32 -42 8 -19 20
-35 27 -35 7 0 27 -15 44 -32 17 -18 38 -39 47 -46 8 -6 13 -18 10 -26 -3 -9
3 -17 15 -21 12 -3 21 -12 21 -20 0 -34 102 -24 108 11 2 10 14 30 27 44 24
26 55 115 55 159 0 14 7 35 15 45 20 27 10 166 -20 266 -19 64 -59 230 -71
295 -2 11 -18 43 -36 70 -27 41 -33 60 -33 106 0 49 -4 60 -32 93 -18 20 -33
46 -33 58 0 29 61 118 100 147 18 13 43 47 57 77 22 49 26 77 37 267 9 156 17
220 29 242 13 26 88 210 103 255 3 9 -1 7 -11 -5 -27 -33 -85 -128 -85 -140 0
-5 -14 -39 -30 -73 -17 -35 -30 -73 -30 -84 0 -11 -7 -27 -15 -36 -45 -49 -81
-82 -93 -82 -6 0 -22 -11 -34 -25 -19 -22 -48 -34 -48 -19 0 9 28 34 39 34 5
0 13 9 16 20 3 11 11 20 16 20 5 0 9 9 9 20 0 11 11 41 25 67 14 27 32 74 40
106 10 36 20 55 27 51 9 -6 27 12 28 27 0 4 -11 10 -26 13 -17 5 -33 0 -51
-14 -14 -11 -36 -20 -49 -20 -13 0 -24 -4 -24 -9 0 -8 -81 -51 -95 -51 -3 0
-5 8 -5 18 0 10 18 34 40 52 27 23 40 42 40 58 0 14 3 23 6 20 14 -14 53 40
56 77 2 22 8 40 13 41 34 3 47 18 41 47 -3 17 -1 36 5 43 17 21 63 17 93 -7
21 -17 30 -18 41 -9 8 6 19 8 26 4 6 -4 21 -7 33 -8 16 -1 22 -9 26 -36 l5
-34 32 70 c55 121 89 296 97 499 4 83 11 170 16 195 5 25 12 97 16 160 9 154
-10 241 -73 340 -35 55 -50 70 -69 70 -14 0 -27 -7 -30 -15z m107 -642 c-9
-16 -10 -15 -11 7 0 14 4 36 8 50 7 24 7 24 10 -7 2 -18 -1 -41 -7 -50z m-17
-38 c6 -17 4 -18 -18 -9 -20 8 -21 24 -2 24 8 0 16 -7 20 -15z m-664 -10 c10
-13 9 -15 -8 -15 -22 0 -36 13 -25 24 10 10 20 7 33 -9z m-84 -167 c4 -6 -1
-17 -12 -25 -16 -12 -20 -11 -31 3 -7 9 -10 21 -7 25 8 13 42 11 50 -3z m82
-6 c3 -9 -2 -13 -14 -10 -9 1 -19 9 -22 16 -3 9 2 13 14 10 9 -1 19 -9 22 -16z
m662 -36 c0 -35 -5 -58 -15 -66 -21 -17 -31 31 -16 81 17 55 31 48 31 -15z
m-505 24 c18 -8 17 -9 -7 -9 -16 -1 -28 4 -28 9 0 12 8 12 35 0z m-171 -118
c6 -4 -9 -10 -34 -14 -25 -3 -54 -8 -65 -10 -29 -5 -32 29 -3 35 28 5 86 -1
102 -11z m656 -40 c0 -4 -4 -12 -9 -17 -5 -6 -11 -26 -13 -45 -2 -27 -8 -36
-25 -38 -13 -2 -23 1 -23 7 0 6 5 11 11 11 8 0 8 4 0 14 -10 12 -8 17 8 25 11
6 23 20 26 31 6 19 25 28 25 12z m-752 -89 c22 -4 32 -11 32 -24 0 -17 8 -19
68 -19 37 0 77 -3 90 -6 26 -7 29 -30 5 -36 -35 -9 -164 11 -201 31 -20 11
-50 25 -66 31 -24 9 -26 13 -15 26 8 9 21 13 33 9 12 -3 36 -8 54 -12z m722
-59 c0 -8 -5 -12 -10 -9 -6 4 -8 11 -5 16 9 14 15 11 15 -7z m-1793 -268 c-8
-19 -37 -21 -37 -3 0 7 5 18 12 25 15 15 33 -1 25 -22z m1398 -537 c6 -19 13
-21 57 -17 57 6 66 -4 44 -46 -16 -32 -10 -70 11 -62 8 3 19 6 24 6 5 0 9 9 9
20 0 11 5 20 10 20 31 0 -1 -76 -65 -155 -76 -92 -143 -125 -189 -90 -11 8
-30 15 -42 15 -13 0 -25 4 -28 9 -12 18 -17 131 -6 131 5 0 10 7 10 15 0 8 5
15 11 15 6 0 9 6 6 13 -6 17 28 65 77 109 47 43 62 47 71 17z m181 -14 c-4
-14 -13 -25 -21 -25 -9 0 -12 -6 -8 -16 4 -12 2 -15 -8 -12 -20 7 -12 49 13
71 25 21 32 16 24 -18z m-1461 -333 c0 -18 -20 -15 -23 4 -3 10 1 15 10 12 7
-3 13 -10 13 -16z m285 -82 c0 -5 -2 -10 -4 -10 -3 0 -8 5 -11 10 -3 6 -1 10
4 10 6 0 11 -4 11 -10z m-526 -46 c7 -19 -1 -34 -19 -34 -18 0 -28 17 -21 35
7 20 32 19 40 -1z m536 -25 c0 -6 -4 -7 -10 -4 -5 3 -10 11 -10 16 0 6 5 7 10
4 6 -3 10 -11 10 -16z m-3 -81 c-3 -8 -6 -5 -6 6 -1 11 2 17 5 13 3 -3 4 -12
1 -19z"/>
<path d="M6268 4559 c-24 -13 -23 -29 2 -29 13 0 20 7 20 20 0 23 1 23 -22 9z"/>
<path d="M6325 6700 c-3 -5 1 -10 9 -10 9 0 16 5 16 10 0 6 -4 10 -9 10 -6 0
-13 -4 -16 -10z"/>
<path d="M2450 6590 c0 -5 5 -10 11 -10 5 0 7 5 4 10 -3 6 -8 10 -11 10 -2 0
-4 -4 -4 -10z"/>
<path d="M3160 5854 c0 -18 24 -44 40 -44 21 0 24 8 14 34 -6 15 -54 24 -54
10z"/>
<path d="M3523 5804 c-3 -8 -1 -20 4 -25 12 -12 48 14 39 29 -10 17 -36 15
-43 -4z"/>
<path d="M4315 5761 c-3 -5 -1 -12 5 -16 5 -3 10 1 10 9 0 18 -6 21 -15 7z"/>
<path d="M4094 5728 c-10 -16 12 -30 35 -23 12 3 21 10 21 15 0 12 -50 19 -56
8z"/>
<path d="M2958 5613 c0 -10 0 -30 1 -45 2 -25 -1 -28 -28 -28 -34 0 -37 -6
-16 -33 8 -11 23 -17 37 -15 21 3 23 8 26 71 2 42 -1 67 -8 67 -5 0 -11 -8
-12 -17z"/>
<path d="M3102 5598 c6 -18 28 -21 28 -4 0 9 -7 16 -16 16 -9 0 -14 -5 -12
-12z"/>
<path d="M2830 5526 c0 -25 5 -48 10 -51 6 -4 10 13 10 44 0 28 -4 51 -10 51
-5 0 -10 -20 -10 -44z"/>
<path d="M3087 5543 c-4 -3 -7 -17 -7 -30 0 -33 24 -24 28 10 3 26 -7 35 -21
20z"/>
<path d="M2706 5486 c-4 -16 -11 -23 -20 -20 -17 7 -28 -74 -13 -94 7 -9 4
-17 -9 -27 -16 -12 -17 -14 -3 -15 9 0 20 7 23 16 11 29 27 3 20 -33 -7 -34
-6 -36 18 -30 17 5 30 2 38 -8 7 -8 16 -15 21 -15 16 0 9 27 -11 45 -11 10
-20 28 -20 40 0 11 -6 27 -12 34 -11 10 -10 12 2 11 41 -6 58 13 21 23 -15 4
-21 15 -23 48 -3 48 -22 63 -32 25z m4 -77 c0 -5 -4 -9 -10 -9 -5 0 -10 7 -10
16 0 8 5 12 10 9 6 -3 10 -10 10 -16z"/>
<path d="M2860 5441 c0 -12 5 -21 10 -21 6 0 10 6 10 14 0 8 -4 18 -10 21 -5
3 -10 -3 -10 -14z"/>
<path d="M2450 5395 c0 -7 7 -15 15 -19 8 -3 15 -17 15 -31 0 -29 27 -45 41
-24 7 11 3 56 -6 67 -1 1 -16 7 -34 12 -24 6 -31 5 -31 -5z"/>
<path d="M2100 5360 c-20 -15 -22 -22 -13 -31 10 -10 15 -9 27 1 22 18 50 5
43 -21 -4 -15 4 -26 36 -46 50 -31 59 -43 45 -60 -8 -10 -14 -10 -24 -2 -16
13 -34 4 -34 -17 0 -8 -5 -14 -10 -14 -6 0 -19 -15 -30 -32 -11 -18 -20 -29
-20 -25 0 4 -11 -2 -24 -15 -28 -26 -37 -59 -18 -65 6 -3 12 2 12 10 0 12 42
46 81 65 18 8 16 -30 -2 -47 l-21 -19 21 -7 c12 -3 21 -13 21 -21 0 -22 -27
-28 -45 -10 -25 25 -48 21 -39 -6 9 -31 51 -85 71 -92 14 -6 14 -8 -3 -20 -12
-10 -24 -11 -36 -5 -24 13 -49 11 -47 -3 3 -28 -2 -37 -23 -40 -54 -8 -8 -50
70 -63 33 -5 42 -11 42 -27 0 -17 4 -19 26 -14 24 6 26 5 20 -18 -8 -32 2 -56
20 -49 8 3 14 0 14 -6 0 -6 -4 -11 -9 -11 -10 0 -20 -43 -28 -115 -4 -44 -1
-56 26 -95 17 -25 31 -51 31 -58 0 -40 89 -114 151 -127 19 -4 47 -14 63 -22
72 -37 260 -57 374 -40 41 6 52 5 52 -6 0 -15 41 -37 69 -37 22 0 78 27 88 43
5 7 17 17 27 23 11 6 29 22 40 37 17 23 18 32 9 74 -7 28 -9 99 -7 170 5 117
-6 203 -25 203 -5 0 -12 11 -15 25 -4 14 -14 34 -24 43 -9 10 -25 34 -35 54
-11 20 -39 51 -64 69 -25 19 -49 42 -54 52 -5 9 -18 17 -28 17 -22 0 -131 49
-149 67 -8 8 -37 12 -79 12 -42 -1 -61 -4 -52 -10 9 -6 -4 -9 -37 -9 -34 0
-56 5 -64 15 -14 17 -40 20 -40 5 0 -5 9 -10 20 -10 11 0 20 -4 20 -9 0 -5 9
-13 20 -16 38 -12 20 -24 -32 -21 -39 1 -56 -3 -67 -16 -17 -19 -61 -25 -61
-7 0 28 22 51 45 45 33 -8 40 9 16 40 -12 15 -21 30 -21 35 0 15 39 20 60 7
18 -11 23 -10 36 7 13 17 17 18 47 6 47 -19 77 -25 77 -14 0 13 -84 73 -102
73 -15 0 -38 19 -38 32 0 13 22 9 40 -7 9 -8 31 -18 48 -21 25 -5 32 -3 32 10
0 9 -8 16 -19 16 -27 0 -36 19 -18 37 17 17 37 10 37 -13 0 -8 5 -14 10 -14 6
0 10 11 10 25 0 31 18 33 30 3 8 -21 9 -20 9 10 1 17 -3 32 -9 32 -5 0 -10 6
-10 13 0 19 -33 47 -54 47 -14 0 -16 -6 -11 -37 6 -36 5 -37 -10 -18 -8 11
-13 25 -11 32 8 19 -4 43 -20 43 -16 0 -19 -16 -4 -25 14 -9 3 -25 -17 -25 -9
0 -22 -8 -29 -17 -13 -17 -15 -17 -27 -1 -16 20 -57 14 -57 -9 0 -12 -8 -13
-42 -8 -37 7 -40 6 -33 -11 14 -34 18 -64 8 -64 -5 0 -20 11 -33 25 -13 14
-28 25 -32 25 -13 0 -30 19 -57 62 -26 43 -66 78 -90 78 -9 0 -27 -9 -41 -20z
m450 -115 c0 -8 -7 -15 -15 -15 -8 0 -15 7 -15 15 0 8 7 15 15 15 8 0 15 -7
15 -15z m-266 -61 c9 -23 8 -24 -19 -24 -23 0 -24 2 -15 20 13 24 26 26 34 4z
m54 -36 c-6 -18 -28 -21 -28 -4 0 9 7 16 16 16 9 0 14 -5 12 -12z m-105 -5 c9
-9 -12 -33 -29 -33 -8 0 -14 9 -14 20 0 19 28 28 43 13z m77 -33 c0 -5 -4 -10
-10 -10 -5 0 -10 5 -10 10 0 6 5 10 10 10 6 0 10 -4 10 -10z m-95 -60 c3 -5
-3 -10 -14 -10 -12 0 -21 5 -21 10 0 6 6 10 14 10 8 0 18 -4 21 -10z m30 -60
c3 -5 -3 -10 -14 -10 -12 0 -21 5 -21 10 0 6 6 10 14 10 8 0 18 -4 21 -10z
m585 -396 c0 -8 -4 -14 -10 -14 -5 0 -10 9 -10 21 0 11 5 17 10 14 6 -3 10
-13 10 -21z m-234 -105 c9 -16 -12 -33 -31 -25 -14 5 -15 9 -5 21 15 18 26 19
36 4z"/>
<path d="M2783 5354 c-3 -9 0 -20 8 -25 22 -14 27 -11 21 16 -5 28 -20 33 -29
9z"/>
<path d="M6376 5335 c4 -8 8 -15 10 -15 2 0 4 7 4 15 0 8 -4 15 -10 15 -5 0
-7 -7 -4 -15z"/>
<path d="M2120 5225 c0 -17 5 -25 13 -22 6 2 12 12 12 22 0 10 -6 20 -12 23
-8 2 -13 -6 -13 -23z"/>
<path d="M2530 5070 c0 -5 9 -10 21 -10 11 0 17 5 14 10 -3 6 -13 10 -21 10
-8 0 -14 -4 -14 -10z"/>
<path d="M2070 4931 c0 -5 5 -13 10 -16 6 -3 10 -2 10 4 0 5 -4 13 -10 16 -5
3 -10 2 -10 -4z"/>
<path d="M1535 4700 c-3 -5 -1 -10 4 -10 6 0 11 5 11 10 0 6 -2 10 -4 10 -3 0
-8 -4 -11 -10z"/>
<path d="M3695 3961 c3 -5 1 -12 -5 -16 -5 -3 -10 -12 -10 -18 0 -7 7 -3 15 7
18 23 19 36 4 36 -5 0 -8 -4 -4 -9z"/>
<path d="M1290 3878 c0 -36 4 -48 15 -48 19 0 19 30 0 66 l-15 29 0 -47z"/>
<path d="M3189 3807 c-31 -18 -63 -38 -72 -45 -11 -10 -29 -12 -55 -7 -50 8
-64 -8 -60 -72 3 -42 6 -48 23 -46 15 1 24 -7 32 -27 8 -21 18 -30 33 -30 18
0 20 -3 11 -14 -10 -12 -7 -14 18 -13 17 1 31 -2 32 -8 4 -14 26 -35 38 -35 5
0 12 -9 16 -19 3 -10 24 -34 46 -52 38 -31 40 -35 37 -83 l-3 -50 -60 -14
c-103 -23 -110 -24 -122 -34 -7 -6 -15 -3 -21 8 -6 11 -27 18 -63 22 -30 2
-59 8 -64 13 -12 9 -82 16 -89 9 -2 -3 -6 -21 -8 -39 -3 -34 -2 -35 31 -35 42
-1 51 -22 16 -38 -24 -11 -29 -9 -58 21 -20 21 -28 35 -20 38 13 5 7 59 -9 79
-13 18 -99 24 -121 9 -29 -20 -107 2 -107 30 0 16 -67 65 -89 65 -11 0 -12
-11 -7 -50 5 -38 3 -50 -6 -50 -20 0 -110 29 -122 39 -6 5 -31 12 -55 15 -23
2 -50 11 -59 19 -10 9 -35 18 -57 22 -22 4 -48 9 -57 12 -15 4 -18 -2 -18 -37
l0 -41 -47 7 c-26 4 -63 7 -83 8 -32 1 -35 4 -38 35 -4 42 -19 58 -64 66 -25
5 -38 2 -47 -9 -18 -22 -34 -20 -49 4 -10 17 -10 23 2 35 8 8 23 15 33 15 26
0 50 57 34 81 -6 10 -11 25 -11 33 0 12 -7 13 -32 5 -18 -5 -45 -9 -60 -9 -16
0 -28 -5 -28 -11 0 -6 -7 -8 -16 -5 -8 3 -12 2 -9 -4 3 -5 -3 -13 -13 -19 -10
-5 -24 -27 -30 -49 -11 -37 -14 -39 -54 -40 -36 -2 -49 -8 -82 -45 -22 -23
-40 -48 -40 -56 -1 -26 -23 -22 -25 4 -3 50 -5 54 -28 60 -13 3 -23 10 -23 15
0 14 -28 12 -33 -2 -6 -19 -14 -7 -21 32 -4 19 -2 42 3 50 9 13 12 12 25 -5
12 -15 15 -16 15 -5 1 8 -8 26 -19 40 -24 30 -25 46 -5 54 8 3 15 12 15 21 0
19 -9 19 -29 1 -29 -26 -46 -5 -50 62 -2 21 -16 13 -29 -17 -8 -19 -9 -36 -3
-52 10 -29 31 -182 34 -259 1 -34 6 -55 14 -55 23 0 23 -13 0 -28 -15 -10 -29
-33 -36 -61 -14 -57 -14 -206 0 -243 6 -15 11 -67 11 -115 -1 -48 4 -102 9
-120 6 -18 13 -46 15 -63 2 -16 9 -44 14 -60 6 -17 14 -73 19 -126 5 -52 16
-111 23 -130 8 -19 18 -51 22 -72 4 -21 25 -74 47 -119 21 -45 39 -90 39 -99
0 -10 39 -75 86 -146 47 -70 95 -146 106 -168 11 -22 36 -62 56 -88 19 -27 56
-83 82 -125 26 -42 71 -117 101 -166 38 -62 81 -113 143 -172 49 -46 93 -84
98 -84 5 0 26 -13 46 -29 78 -62 388 -217 482 -241 25 -7 50 -15 55 -20 6 -4
32 -13 60 -19 27 -7 54 -16 60 -20 5 -5 42 -14 80 -21 39 -7 75 -16 80 -20 6
-4 48 -13 95 -19 47 -7 92 -15 100 -18 8 -3 31 -7 50 -8 19 -2 67 -8 105 -14
39 -5 96 -10 127 -10 31 -1 59 -4 61 -9 7 -11 497 -14 511 -4 6 6 61 13 121
17 61 4 115 10 120 14 6 4 55 13 110 20 55 7 105 16 110 20 6 5 45 14 88 21
72 12 77 14 71 34 -4 12 -11 24 -15 27 -12 7 67 49 93 49 14 0 19 6 16 23 -2
16 -11 23 -33 25 -39 5 -52 17 -60 53 -4 16 -14 33 -23 38 -9 5 -20 11 -24 13
-3 1 -18 -8 -32 -21 -14 -14 -29 -21 -33 -16 -5 4 -3 10 4 12 17 6 -2 55 -33
84 -30 28 -30 41 1 70 16 16 25 35 25 55 0 20 9 40 24 55 21 20 22 25 10 48
-12 22 -12 26 1 29 8 2 15 10 15 17 0 8 8 20 19 27 10 7 20 22 22 33 3 13 12
20 28 20 13 0 31 10 41 23 10 12 25 22 34 22 19 0 21 -11 4 -28 -9 -9 -9 -15
0 -24 19 -19 34 4 36 51 0 26 5 41 13 41 20 0 15 41 -5 46 -18 5 -47 54 -31
54 5 0 9 7 9 15 0 23 30 18 52 -10 11 -14 24 -25 30 -25 6 0 17 -8 24 -17 12
-17 14 -17 35 4 19 19 21 27 13 50 -5 15 -22 34 -37 41 -26 13 -26 14 -11 37
9 14 22 25 29 25 7 0 23 8 36 18 13 11 40 19 58 19 19 0 36 4 38 10 2 5 16 8
32 5 25 -3 30 1 44 37 9 22 26 45 37 51 12 6 20 21 20 35 0 14 5 25 12 25 6 0
9 -3 5 -6 -3 -3 -1 -19 5 -35 10 -29 31 -38 44 -18 5 8 9 8 14 -1 10 -15 35
-1 35 20 0 9 7 14 18 12 9 -2 20 4 23 13 8 19 24 20 24 0 0 -25 17 -17 28 14
8 23 7 32 -4 42 -8 6 -14 16 -14 22 0 5 -11 20 -25 33 -44 41 -34 54 39 52 41
-1 70 3 81 12 8 7 25 13 38 14 29 1 36 36 8 43 -26 7 -27 30 -2 38 13 4 27 -1
40 -14 29 -29 71 -28 72 2 1 12 1 25 1 28 -1 3 10 4 23 1 18 -3 25 0 25 12 0
9 5 16 10 16 6 0 10 12 10 26 0 20 -4 25 -16 20 -20 -8 -44 10 -44 33 0 9 9
24 20 34 11 9 20 23 20 31 0 8 7 16 15 20 11 4 14 19 12 61 -2 30 -6 56 -8 58
-2 2 -27 18 -56 36 -49 32 -63 52 -63 97 0 12 -8 28 -19 35 -10 8 -21 28 -24
44 -4 26 1 34 33 60 28 22 39 40 44 69 4 22 14 45 23 52 21 15 21 83 1 98 -8
6 -15 27 -16 46 -5 101 -8 116 -26 129 -11 8 -35 29 -55 47 -75 70 -130 104
-166 104 -38 0 -43 -10 -21 -51 22 -42 36 -118 39 -204 1 -44 6 -85 10 -92 17
-27 -15 -21 -72 13 -34 20 -64 41 -67 45 -7 12 -44 11 -44 0 0 -6 5 -13 10
-16 6 -3 10 -18 10 -32 0 -18 4 -24 15 -19 9 3 15 0 15 -10 0 -8 15 -29 33
-45 l32 -30 -24 -20 c-31 -26 -55 -25 -48 1 4 17 0 22 -24 27 -16 3 -32 10
-35 14 -3 5 -13 9 -23 9 -10 0 -29 8 -42 18 -23 18 -74 37 -169 63 -25 6 -81
12 -126 13 -51 1 -87 6 -97 14 -13 11 -17 10 -27 -7 -13 -25 -37 -27 -67 -6
-16 11 -28 13 -48 5 -14 -5 -45 -10 -68 -10 -23 0 -62 -10 -86 -21 -43 -19
-47 -19 -110 -3 -36 9 -73 20 -81 24 -20 10 -40 2 -40 -16 0 -16 -55 -20 -65
-4 -5 9 15 15 38 11 7 -1 11 23 7 49 -2 18 -20 30 -40 29 -8 -1 -24 -1 -35 0
-18 1 -19 2 -2 12 23 14 22 29 -4 29 -11 0 -17 -4 -14 -10 10 -16 -58 -11 -79
5 -11 8 -29 15 -41 15 -12 0 -26 5 -32 11 -11 11 -6 56 8 65 5 3 9 26 9 51 0
39 5 50 36 79 19 19 42 34 49 34 25 0 190 82 203 102 7 10 17 16 22 13 14 -9
20 41 9 74 -8 23 -17 31 -34 31 -13 0 -27 -4 -30 -10 -10 -16 -25 -11 -25 8 0
11 -9 27 -20 37 -11 10 -17 21 -14 26 7 13 -31 29 -54 22 -19 -5 -22 -1 -22
29 0 19 -5 39 -12 46 -15 15 -54 16 -63 2 -3 -5 -15 -10 -26 -10 -13 0 -19 -7
-19 -24 0 -13 -6 -29 -14 -35 -11 -10 -16 -8 -21 9 -7 22 -15 22 -19 -2 -1 -7
-5 -19 -9 -25 -5 -7 -5 -13 -1 -13 20 0 -35 -42 -68 -52 -21 -6 -38 -15 -38
-20 0 -4 -13 -8 -30 -8 -34 0 -32 24 3 35 21 7 21 7 2 12 -10 3 -21 0 -23 -6
-2 -6 -10 -11 -18 -11 -8 0 -14 -7 -14 -15 0 -19 -31 -19 -76 0 -19 8 -40 12
-47 10 -15 -5 -67 39 -67 58 0 17 -20 37 -39 37 -8 0 -29 -11 -47 -25 -37 -28
-66 -32 -84 -10 -7 8 -8 15 -2 15 11 0 21 29 14 48 -5 16 -95 62 -119 61 -10
0 -43 -15 -74 -32z m286 -127 c3 -5 -1 -10 -9 -10 -9 0 -16 5 -16 10 0 6 4 10
9 10 6 0 13 -4 16 -10z m-60 -29 c10 -17 -12 -21 -25 -6 -10 12 -10 15 3 15 9
0 18 -4 22 -9z m490 -31 c3 -5 1 -10 -4 -10 -6 0 -11 5 -11 10 0 6 2 10 4 10
3 0 8 -4 11 -10z m-45 -30 c0 -6 -9 -10 -20 -10 -13 0 -20 7 -20 20 0 18 3 19
20 10 11 -6 20 -15 20 -20z m-393 5 c3 -9 3 -19 -1 -22 -7 -7 -36 16 -36 28 0
15 30 10 37 -6z m343 -51 c0 -31 -23 -28 -28 4 -2 15 2 22 12 22 11 0 16 -9
16 -26z m-1030 -269 c0 -17 -36 -20 -45 -5 -4 6 -4 18 -1 26 4 12 10 13 26 4
11 -6 20 -17 20 -25z m-1130 -20 c0 -19 -5 -25 -22 -24 -13 0 -17 3 -10 6 6 2
12 13 12 24 0 10 5 19 10 19 6 0 10 -11 10 -25z m3798 -183 c2 -15 -2 -22 -12
-22 -11 0 -16 9 -16 26 0 31 23 28 28 -4z m57 -137 c0 -22 -31 -33 -48 -16 -7
7 -6 15 3 26 17 21 45 15 45 -10z m185 -455 c0 -11 -7 -20 -15 -20 -18 0 -19
12 -3 28 16 16 18 15 18 -8z m-1160 -1461 c12 -39 3 -61 -24 -57 -16 2 -21 9
-19 31 1 17 -3 27 -12 27 -25 0 -29 23 -6 41 20 17 25 17 38 4 8 -8 18 -29 23
-46z"/>
<path d="M1873 3750 c-27 -46 -27 -46 -8 -54 25 -9 61 14 78 49 18 38 14 45
-22 45 -20 0 -31 -10 -48 -40z"/>
<path d="M3840 3700 c-9 -6 -10 -10 -3 -10 6 0 15 5 18 10 8 12 4 12 -15 0z"/>
<path d="M2000 3465 c0 -9 9 -15 25 -15 18 0 23 4 19 15 -4 8 -15 15 -25 15
-10 0 -19 -7 -19 -15z"/>
<path d="M4726 3195 l-27 -25 24 -26 c21 -23 29 -25 53 -17 24 8 28 15 29 45
1 29 -3 38 -19 42 -31 8 -31 8 -60 -19z"/>
<path d="M4400 3145 c-19 -22 -7 -48 25 -57 35 -9 52 3 30 22 -8 7 -15 18 -15
25 0 19 -27 26 -40 10z"/>
<path d="M5190 3095 c7 -8 16 -12 21 -9 13 8 1 24 -18 24 -13 0 -13 -3 -3 -15z"/>
</g>
</svg>
